# xmcd
#
# Track frame offsets: 
#        150
#        22075
#        50093
#        67760
#        92900
#        111570
#        132923
#        156293
#        178475
#        196538
#        210678
#        224345
#        236705
#
# Disc length: 3425 seconds
#
# Revision: 2
# Processed by: cddbd v1.5.2PL0 Copyright (c) Steve Scherf et al.
# Submitted via: ExactAudioCopyFreeDBPlugin 1.0
#
DISCID=c60d5f0d
DTITLE=Various Artist - 逮捕しちゃうぞ Full Throttle Project "5-Discs! All C
DTITLE=omposition Nostalgia" [CD4]
DYEAR=2008
DGENRE=Anime
TTITLE0=葵 双葉 -  ボーイハント
TTITLE1=辻本夏実、小早川美幸、中嶋 剣、二階堂頼子、課長 - やさしさにThank you
TTITLE2=ストライク男 with ストライク少女隊  - 愛と正義のストライクメドレー
TTITLE3=The T.P.D. (Temptation from the Planet of Desire) - 愛のSpace Pr
TTITLE3=incess pee!! (ver.1.1 JULIANA-PLANET)
TTITLE4=二階堂頼子 - 噂がいっぱい
TTITLE5=emiko - 横顔
TTITLE6=白井貴子 - 空を見上げて
TTITLE7=中村裕介 - 君に逢いにゆこう
TTITLE8=尾美須三朗 - 交通戦隊オービスリー
TTITLE9=小早川美幸・中嶋 剣 - 「好きだよ」なんて言えるわけないじゃない
TTITLE10=辻本夏実 - 桜吹雪捕物帳
TTITLE11=中嶋 剣 - 時の運命に～ディレクターズカット
TTITLE12=Tokyo Policewoman Duo - 首都高バトル 2:00a.m.
EXTD=YEAR: 2008
EXTT0=
EXTT1=
EXTT2=
EXTT3=
EXTT4=
EXTT5=
EXTT6=
EXTT7=
EXTT8=
EXTT9=
EXTT10=
EXTT11=
EXTT12=
PLAYORDER=
